<svg width="16" height="21" viewBox="0 0 16 21" fill="none" xmlns="http://www.w3.org/2000/svg">
<path id="Vector" d="M14 19.5H14.5V19V9V8.5H14H2H1.5V9V19V19.5H2H14ZM3 7.5H3.5V7V5C3.5 3.80653 3.97411 2.66193 4.81802 1.81802C5.66193 0.974106 6.80653 0.5 8 0.5C8.59095 0.5 9.17611 0.616396 9.72208 0.842542C10.268 1.06869 10.7641 1.40016 11.182 1.81802C11.5998 2.23588 11.9313 2.73196 12.1575 3.27792C12.3836 3.82389 12.5 4.40905 12.5 5V7V7.5H13H14C14.3978 7.5 14.7794 7.65804 15.0607 7.93934C15.342 8.22064 15.5 8.60218 15.5 9V19C15.5 19.3978 15.342 19.7794 15.0607 20.0607C14.7794 20.342 14.3978 20.5 14 20.5H2C1.60218 20.5 1.22064 20.342 0.93934 20.0607C0.658035 19.7794 0.5 19.3978 0.5 19V9C0.5 8.16614 1.16614 7.5 2 7.5H3ZM4.5 7V7.5H5H11H11.5V7V5C11.5 4.07174 11.1313 3.1815 10.4749 2.52513C9.8185 1.86875 8.92826 1.5 8 1.5C7.07174 1.5 6.1815 1.86875 5.52513 2.52513C4.86875 3.1815 4.5 4.07174 4.5 5V7ZM8 15.5C7.60218 15.5 7.22064 15.342 6.93934 15.0607C6.65804 14.7794 6.5 14.3978 6.5 14C6.5 13.1661 7.16614 12.5 8 12.5C8.39782 12.5 8.77936 12.658 9.06066 12.9393C9.34196 13.2206 9.5 13.6022 9.5 14C9.5 14.3978 9.34196 14.7794 9.06066 15.0607C8.77936 15.342 8.39782 15.5 8 15.5Z" fill="#8E8CAA" stroke="#8E8CAA"/>
</svg>
