<svg width="17" height="17" viewBox="0 0 17 17" fill="none" xmlns="http://www.w3.org/2000/svg">
<path id="Vector" d="M2.07202 1.22593L3.36859 0.460026C3.79655 0.207473 4.30177 0.119227 4.79001 0.211749C5.27825 0.304272 5.71615 0.571244 6.02205 0.962865L7.53964 2.90494C7.803 3.24185 7.95423 3.65277 7.9721 4.08001C7.98998 4.50726 7.8736 4.92938 7.6393 5.2871L6.48692 7.04617C6.33336 7.28544 6.66706 7.98912 7.70988 9.07744C8.7536 10.1663 9.44276 10.529 9.68455 10.3869L11.4952 9.30779C11.8621 9.08901 12.2884 8.99055 12.7142 9.02622C13.1399 9.06189 13.5439 9.2299 13.8694 9.5067L15.7392 11.0979C16.1169 11.4192 16.3651 11.8666 16.4377 12.3571C16.5103 12.8476 16.4024 13.3478 16.1341 13.7647L15.3063 15.0509C15.0391 15.4661 14.6665 15.803 14.2266 16.0272C13.7867 16.2514 13.2952 16.3549 12.8022 16.3271C10.3727 16.1901 7.77596 14.6509 4.99098 11.7453C2.20041 8.83581 0.758872 6.15767 0.700717 3.69482C0.689097 3.19853 0.810043 2.70812 1.05109 2.27415C1.29213 1.84017 1.64455 1.47833 2.07202 1.22593Z" fill="white"/>
</svg>
